<svg width="50" height="50" viewBox="0 0 50 50" fill="none" xmlns="http://www.w3.org/2000/svg">
<path d="M6.25 12.4998H10.4167M10.4167 12.4998H43.75M10.4167 12.4998V41.6665C10.4167 42.7716 10.8557 43.8314 11.6371 44.6128C12.4185 45.3942 13.4783 45.8332 14.5833 45.8332H35.4167C36.5217 45.8332 37.5815 45.3942 38.3629 44.6128C39.1443 43.8314 39.5833 42.7716 39.5833 41.6665V12.4998M16.6667 12.4998V8.33317C16.6667 7.2281 17.1057 6.16829 17.8871 5.38689C18.6685 4.60549 19.7283 4.1665 20.8333 4.1665H29.1667C30.2717 4.1665 31.3315 4.60549 32.1129 5.38689C32.8943 6.16829 33.3333 7.2281 33.3333 8.33317V12.4998M20.8333 22.9165V35.4165M29.1667 22.9165V35.4165" stroke="#1E1E1E" stroke-width="4" stroke-linecap="round" stroke-linejoin="round"/>
</svg>
