<svg width="20" height="20" viewBox="0 0 20 20" fill="none" xmlns="http://www.w3.org/2000/svg">
<path fill-rule="evenodd" clip-rule="evenodd" d="M10.0001 3.33317C8.82481 3.33291 7.67035 3.64335 6.65371 4.23302C5.63707 4.8227 4.79438 5.67066 4.21105 6.69095C3.62772 7.71125 3.32449 8.86762 3.33207 10.0429C3.33966 11.2181 3.6578 12.3705 4.25426 13.3832L4.72842 13.9815L4.14759 15.9473L6.08092 15.4073L6.39676 15.6098C7.26837 16.1694 8.25839 16.5182 9.28828 16.6286C10.3182 16.7389 11.3596 16.6078 12.33 16.2455C13.3004 15.8833 14.173 15.2999 14.8786 14.5417C15.5843 13.7835 16.1036 12.8712 16.3953 11.8774C16.687 10.8835 16.7431 9.83535 16.5592 8.81602C16.3753 7.7967 15.9564 6.83425 15.3357 6.00502C14.715 5.17578 13.9097 4.50258 12.9835 4.0388C12.0574 3.57502 11.0359 3.33342 10.0001 3.33317ZM1.66676 9.99984C1.66676 5.39734 5.39759 1.6665 10.0001 1.6665C14.6026 1.6665 18.3334 5.39734 18.3334 9.99984C18.3334 14.6023 14.6026 18.3332 10.0001 18.3332C8.532 18.3353 7.08963 17.9479 5.82009 17.2107L1.69676 18.3623L2.88509 14.3382L2.88009 14.3323L2.85259 14.2865C2.07462 12.9921 1.66462 11.51 1.66676 9.99984Z" fill="white"/>
<path d="M13.9459 11.2432C13.9142 11.2282 12.6984 10.6299 12.4825 10.5516C12.3924 10.5145 12.2966 10.4933 12.1992 10.4891C12.0359 10.4891 11.8975 10.5707 11.7909 10.7316C11.6692 10.9124 11.3017 11.3416 11.1884 11.4699C11.1734 11.4866 11.1534 11.5074 11.1409 11.5074C11.13 11.5074 10.9417 11.4299 10.885 11.4049C9.5817 10.8382 8.59253 9.4774 8.4567 9.2474C8.43753 9.21406 8.4367 9.1999 8.4367 9.1999C8.44087 9.1824 8.48503 9.13823 8.50753 9.11573C8.5742 9.0499 8.64587 8.96406 8.71503 8.8799L8.81253 8.76323C8.91337 8.64656 8.95837 8.5549 9.01003 8.45073L9.03753 8.39573C9.07876 8.3123 9.09881 8.22 9.0959 8.12698C9.093 8.03396 9.06722 7.94309 9.02087 7.8624C8.99253 7.8049 8.4792 6.56656 8.42503 6.43656C8.29337 6.1224 8.12003 5.97656 7.8792 5.97656C7.8567 5.97656 7.8792 5.97656 7.78587 5.98073C7.6717 5.9849 7.05003 6.0674 6.77503 6.2399C6.48337 6.42323 5.9917 7.0099 5.9917 8.0399C5.9917 8.96656 6.5792 9.84156 6.8317 10.1741L6.86587 10.2241C7.83337 11.6366 9.0392 12.6832 10.2609 13.1716C11.4375 13.6416 11.995 13.6966 12.3117 13.6966C12.445 13.6966 12.5517 13.6857 12.645 13.6766L12.705 13.6707C13.1117 13.6349 14.005 13.1716 14.2084 12.6074C14.3684 12.1624 14.4109 11.6766 14.3042 11.4999C14.2309 11.3799 14.105 11.3199 13.9459 11.2432Z" fill="white"/>
</svg>
